<?xml version="1.0"?><svg style="enable-background:new 0 0 24 24;" version="1.1" viewBox="0 0 24 24" xml:space="preserve" xmlns="http://www.w3.org/2000/svg" xmlns:xlink="http://www.w3.org/1999/xlink"><g id="info"/><g id="icons"><g id="calendar"><path d="M18,4c0-1.1-0.9-2-2-2s-2,0.9-2,2h-4c0-1.1-0.9-2-2-2S6,2.9,6,4C3.8,4,2,5.8,2,8v10c0,2.2,1.8,4,4,4h12c2.2,0,4-1.8,4-4V8    C22,5.8,20.2,4,18,4z M20,19c0,0.6-0.4,1-1,1H5c-0.6,0-1-0.4-1-1v-8c0-0.6,0.4-1,1-1h14c0.6,0,1,0.4,1,1V19z"/><path d="M13,12h-2c-1.1,0-2,0.9-2,2v2c0,1.1,0.9,2,2,2h2c1.1,0,2-0.9,2-2v-2C15,12.9,14.1,12,13,12z"/></g></g></svg>