<?xml version="1.0"?><!DOCTYPE svg  PUBLIC '-//W3C//DTD SVG 1.1//EN'  'http://www.w3.org/Graphics/SVG/1.1/DTD/svg11.dtd'><svg height="512px" style="enable-background:new 0 0 512 512;" version="1.1" viewBox="0 0 512 512" width="512px" xml:space="preserve" xmlns="http://www.w3.org/2000/svg" xmlns:xlink="http://www.w3.org/1999/xlink"><g id="_x38__x2C__Couple__x2C__love_x2C__marriage_x2C__heart"><g id="XMLID_15867_"><path d="M278.367,215.852c0,3.656,0.367,7.315,1.09,10.877c3.197,15.749,13.148,28.798,26.448,36.372    c7.981,4.544,17.168,7.115,26.826,7.115c23.069,0,43.689-14.628,51.313-36.401c2.024-5.785,3.051-11.829,3.051-17.963    c0-29.977-24.388-54.364-54.364-54.364S278.367,185.875,278.367,215.852z" id="XMLID_15868_"/><path d="M191.074,222.997c23.069,0,43.689-14.628,51.312-36.401c2.026-5.785,3.052-11.828,3.052-17.963    c0-29.977-24.387-54.364-54.364-54.364s-54.364,24.388-54.364,54.364c0,3.656,0.367,7.315,1.09,10.877    C142.915,204.708,165.32,222.997,191.074,222.997z" id="XMLID_15869_"/><path d="M250.578,94.91c4.504,4.777,10.037,9.614,15.896,14.736l0.078,0.069    c4.377,3.826,8.873,7.757,13.457,12.076c4.586-4.321,9.085-8.253,13.464-12.08l0.075-0.066    c5.862-5.121,11.398-9.958,15.907-14.736c4.692-4.972,7.742-9.317,9.598-13.674c1.47-3.447,2.184-6.906,2.184-10.575    c0-0.673-0.043-1.356-0.131-2.088c-1.077-8.93-8.888-15.665-18.167-15.665c-9.672,0-14.86,3.442-19.83,13.155    c-0.796,1.557-2.398,2.538-4.148,2.538c-1.748,0-3.352-0.98-4.147-2.538c-5.409-10.573-8.89-13.155-17.735-13.155    c-9.265,0-17.063,6.734-18.14,15.665c-0.088,0.732-0.131,1.416-0.131,2.088c0,3.668,0.713,7.128,2.18,10.576    C242.843,85.595,245.89,89.939,250.578,94.91z" id="XMLID_15870_"/><path d="M386.232,250.391c-0.266,0.411-0.543,0.813-0.817,1.216c-0.181,0.267-0.356,0.537-0.542,0.8    c-0.289,0.413-0.591,0.816-0.89,1.221c-0.18,0.244-0.354,0.493-0.539,0.734c-0.331,0.435-0.674,0.86-1.016,1.286    c-0.162,0.202-0.318,0.41-0.482,0.609c-0.445,0.542-0.903,1.073-1.366,1.6c-0.066,0.076-0.132,0.156-0.199,0.232    c-0.534,0.602-1.079,1.193-1.635,1.773c-0.134,0.139-0.273,0.271-0.408,0.41c-0.424,0.436-0.849,0.869-1.286,1.291    c-0.213,0.207-0.433,0.403-0.648,0.606c-0.367,0.345-0.731,0.692-1.105,1.028c-0.247,0.223-0.502,0.435-0.752,0.652    c-0.353,0.307-0.702,0.616-1.061,0.916c-0.269,0.223-0.544,0.436-0.816,0.656c-0.35,0.281-0.698,0.566-1.054,0.84    c-0.284,0.22-0.574,0.43-0.862,0.643c-0.353,0.264-0.703,0.528-1.062,0.784c-0.298,0.213-0.603,0.415-0.905,0.623    c-0.355,0.245-0.709,0.491-1.069,0.729c-0.313,0.205-0.63,0.4-0.945,0.601c-0.301,0.19-0.597,0.388-0.9,0.572h2.274    c1.156,0,2.306,0.036,3.453,0.087c0.231,0.01,0.462,0.021,0.692,0.033c1.11,0.061,2.217,0.143,3.318,0.252    c0.199,0.02,0.397,0.044,0.597,0.064c1.045,0.112,2.086,0.243,3.12,0.396c0.122,0.02,0.246,0.033,0.369,0.053    c1.1,0.169,2.192,0.368,3.279,0.586c0.232,0.047,0.465,0.093,0.695,0.143c1.082,0.225,2.158,0.471,3.225,0.744    c0.137,0.034,0.271,0.073,0.408,0.109c0.999,0.262,1.991,0.545,2.977,0.847c0.176,0.054,0.352,0.104,0.526,0.159    c1.043,0.327,2.077,0.68,3.103,1.053c0.212,0.076,0.422,0.155,0.633,0.233c1.047,0.391,2.089,0.798,3.116,1.233    c0.028,0.013,0.058,0.026,0.085,0.038c1.011,0.431,2.007,0.888,2.996,1.362c0.191,0.092,0.384,0.182,0.574,0.275    c0.979,0.479,1.948,0.979,2.905,1.5c0.173,0.094,0.344,0.191,0.516,0.286c0.927,0.515,1.846,1.045,2.75,1.597    c0.072,0.045,0.146,0.087,0.218,0.131c0.945,0.582,1.876,1.191,2.795,1.814c0.185,0.126,0.369,0.252,0.554,0.379    c0.905,0.626,1.799,1.27,2.678,1.936c0.117,0.088,0.231,0.182,0.348,0.271c0.826,0.634,1.639,1.285,2.438,1.954    c0.123,0.104,0.247,0.202,0.368,0.305c0.844,0.715,1.671,1.451,2.484,2.203c0.162,0.15,0.322,0.302,0.483,0.453    c0.819,0.772,1.629,1.559,2.417,2.369c0.009,0.011,0.019,0.02,0.029,0.029c-1.696-21.148-13.338-40.049-31.496-51.108    c-0.159,0.354-0.331,0.698-0.495,1.047c-0.15,0.319-0.297,0.641-0.454,0.957c-0.208,0.424-0.429,0.84-0.646,1.259    c-0.161,0.308-0.317,0.618-0.481,0.923c-0.228,0.418-0.466,0.829-0.701,1.241c-0.169,0.296-0.334,0.596-0.508,0.888    c-0.245,0.414-0.501,0.819-0.755,1.226C386.583,249.826,386.412,250.112,386.232,250.391z" id="XMLID_15871_"/><path d="M285.513,270.216h14.129c-0.099-0.06-0.192-0.126-0.29-0.186c-0.525-0.325-1.043-0.663-1.559-1.002    c-0.281-0.185-0.566-0.364-0.844-0.554c-0.636-0.432-1.259-0.88-1.878-1.335c-0.148-0.108-0.301-0.211-0.447-0.321    c-0.763-0.57-1.512-1.158-2.248-1.761c-0.205-0.168-0.402-0.345-0.605-0.516c-0.526-0.442-1.049-0.886-1.561-1.345    c-0.265-0.238-0.521-0.483-0.783-0.726c-0.438-0.405-0.874-0.813-1.301-1.231c-0.276-0.271-0.545-0.547-0.815-0.822    c-0.4-0.406-0.797-0.814-1.187-1.232c-0.271-0.289-0.536-0.582-0.801-0.877c-0.378-0.421-0.751-0.846-1.117-1.277    c-0.256-0.3-0.511-0.602-0.761-0.907c-0.365-0.444-0.721-0.895-1.073-1.349c-0.235-0.304-0.474-0.606-0.704-0.915    c-0.361-0.483-0.713-0.976-1.061-1.471c-0.204-0.289-0.412-0.575-0.611-0.867c-0.394-0.58-0.772-1.17-1.148-1.764    c-0.137-0.218-0.283-0.432-0.418-0.651c-0.506-0.822-0.995-1.656-1.464-2.503c-0.073-0.133-0.14-0.269-0.212-0.402    c-0.39-0.715-0.77-1.436-1.131-2.167c-0.146-0.293-0.279-0.593-0.421-0.889c-0.276-0.58-0.551-1.162-0.81-1.752    c-0.152-0.344-0.293-0.693-0.438-1.041c-0.231-0.554-0.46-1.109-0.675-1.671c-0.143-0.37-0.279-0.743-0.414-1.116    c-0.201-0.553-0.396-1.108-0.581-1.669c-0.128-0.383-0.251-0.768-0.372-1.155c-0.175-0.564-0.341-1.134-0.501-1.707    c-0.067-0.241-0.146-0.477-0.211-0.719H143.854c-36.485,0-66.169,29.684-66.169,66.169v160.607h37.9V357.51    c0-2.574,2.086-4.66,4.66-4.66c2.573,0,4.66,2.086,4.66,4.66v101.583h85.118V345.704    C210.023,304.08,243.888,270.216,285.513,270.216z" id="XMLID_15872_"/><path d="M423.289,309.138c-12.318-18.536-32.932-29.603-55.144-29.603h-35.414h-47.219    c-36.486,0-66.169,29.684-66.169,66.169v113.389h7.145h30.754V357.51c0-2.574,2.086-4.66,4.66-4.66s4.66,2.086,4.66,4.66v101.583    h120.533V357.51c0-2.574,2.086-4.66,4.66-4.66s4.66,2.086,4.66,4.66v101.583h37.898V345.704    C434.314,332.636,430.502,319.992,423.289,309.138z" id="XMLID_15873_"/></g></g><g id="Layer_1"/></svg>